<svg width="40" height="40" viewBox="0 0 40 40" fill="none" xmlns="http://www.w3.org/2000/svg">
<path d="M22.3566 20L29.9996 27.643C30.6505 28.2939 30.6505 29.3492 29.9996 30C29.3487 30.6509 28.2935 30.6509 27.6426 30L18.3497 20.7072C17.9592 20.3166 17.9592 19.6835 18.3497 19.2929L27.6426 10C28.2935 9.34917 29.3487 9.34917 29.9996 10C30.6505 10.6509 30.6505 11.7062 29.9996 12.3571L22.3566 20Z" fill="white"/>
<path d="M18.1307 20L10.4877 27.643C9.83683 28.2939 9.83683 29.3492 10.4877 30C11.1386 30.6509 12.1939 30.6509 12.8447 30L22.1376 20.7072C22.5281 20.3166 22.5281 19.6835 22.1376 19.2929L12.8447 10C12.1939 9.34917 11.1386 9.34917 10.4877 10C9.83683 10.6509 9.83683 11.7062 10.4877 12.3571L18.1307 20Z" fill="white"/>
</svg>
